<?xml version="1.0" encoding="UTF-8"?><svg id="_이어_2" xmlns="http://www.w3.org/2000/svg" viewBox="0 0 620.69 823.73"><defs><style>.cls-1{fill:#2f2e41;}.cls-2{fill:#3f3d56;}.cls-3{fill:#d0cde1;}.cls-4{opacity:.05;}.cls-4,.cls-5{isolation:isolate;}.cls-6{fill:#ffb8b8;}.cls-5{opacity:.1;}</style></defs><g id="_이어_1-2"><circle class="cls-2" cx="319.19" cy="301.5" r="301.5"/><circle class="cls-4" cx="319.19" cy="301.5" r="248.9"/><circle class="cls-4" cx="319.19" cy="301.5" r="203.99"/><circle class="cls-4" cx="319.19" cy="301.5" r="146.26"/><path class="cls-3" d="M20.36,328.48S-3.35,395.2,7.19,418.91s27.22,46.53,27.22,46.53c0,0-6.15-132.57-14.05-136.96Z"/><path class="cls-5" d="M20.36,328.48S-3.35,395.2,7.19,418.91s27.22,46.53,27.22,46.53c0,0-6.15-132.57-14.05-136.96Z"/><path class="cls-1" d="M37.04,483s-1.76,16.68-2.63,17.56,.88,2.63,0,5.27-1.76,6.15,0,7.02-9.66,78.14-9.66,78.14c0,0-28.09,36.87-16.68,94.82l3.51,58.82s27.22,1.76,27.22-7.9c0,0-1.76-11.41-1.76-16.68s4.39-5.27,1.76-7.9-2.63-4.39-2.63-4.39c0,0,4.39-3.51,3.51-4.39s7.9-63.21,7.9-63.21c0,0,9.66-9.66,9.66-14.92v-5.27s4.39-11.41,4.39-12.29,23.7-54.43,23.7-54.43l9.66,38.63,10.54,55.31s5.27,50.04,15.8,69.36c0,0,18.44,63.21,18.44,61.45s30.73-6.15,29.85-14.05-18.44-118.52-18.44-118.52l4.39-164.17-118.52,1.76Z"/><path class="cls-1" d="M13.33,740.23s-23.7,46.53-7.9,48.29,21.95,1.76,28.97-5.27c3.84-3.84,11.62-8.99,17.88-12.87,7.57-4.62,11.83-13.16,10.97-21.98-.46-4.3-2.07-7.83-6.02-8.16-10.54-.88-22.83-10.54-22.83-10.54l-21.07,10.54Z"/><path class="cls-1" d="M144.14,774.47s-23.7,46.53-7.9,48.29c15.8,1.76,21.95,1.76,28.97-5.27,3.84-3.84,11.62-8.99,17.88-12.87,7.57-4.62,11.83-13.16,10.97-21.98-.46-4.3-2.07-7.83-6.02-8.16-10.54-.88-22.83-10.54-22.83-10.54l-21.07,10.54Z"/><circle class="cls-6" cx="119.09" cy="215.43" r="36.9"/><path class="cls-6" d="M95.37,227.56s-26.36,48.5-28.47,48.5,47.45,15.82,47.45,15.82c0,0,13.71-46.39,15.82-50.61l-34.8-13.71Z"/><path class="cls-3" d="M135.8,280.64s-52.68-28.97-57.94-28.09-61.45,50.04-60.58,70.23,7.9,53.55,7.9,53.55c0,0,2.63,93.06,7.9,93.94s-.88,16.68,.88,16.68,122.91,0,123.79-2.63-21.95-203.68-21.95-203.68Z"/><path class="cls-6" d="M165.21,489.14s16.68,50.92,2.63,49.16-20.19-43.9-20.19-43.9l17.56-5.27Z"/><path class="cls-3" d="M120.44,277.56s-32.48,7.02-27.22,50.92,14.92,87.79,14.92,87.79l32.48,71.11,3.51,13.17,23.7-6.15-17.56-101.84s-6.15-108.86-14.05-112.37c-4.98-2.12-10.4-3.03-15.8-2.63Z"/><polygon class="cls-5" points="100.69 414.96 141.07 486.95 107.05 411.09 100.69 414.96"/><path class="cls-1" d="M155.83,204.57l.12-2.82,5.61,1.4c-.12-1.83-1.04-3.52-2.51-4.62l5.98-.33c-10.13-14.4-25.71-24.03-43.12-26.65-12.93-1.87-27.32,.84-36.18,10.43-4.3,4.65-7,10.57-8.92,16.61-3.54,11.12-4.26,24.37,3.12,33.41,7.5,9.19,20.6,10.98,32.41,12.12,4.15,.4,8.51,.77,12.35-.84,.43-4.41-.14-8.87-1.65-13.04-.63-1.29-.93-2.72-.88-4.15,.52-3.51,5.21-4.4,8.73-3.92,3.52,.47,7.75,1.2,10.06-1.49,1.59-1.86,1.5-4.56,1.71-7,.57-6.63,13.13-7.71,13.19-9.1Z"/></g></svg>